<?xml version="1.0" encoding="utf-8"?>
<?xml-stylesheet type="text/xsl" href="rss1.xsl"?>
<rss version="2.0" xmlns:atom="http://www.w3.org/2005/Atom" xmlns:content="http://purl.org/rss/1.0/modules/content/" xmlns:dc="http://purl.org/dc/elements/1.1/" xmlns:media="http://search.yahoo.com/mrss/">
<channel>
 <title>Getty</title>
 <link>http://www.gettyimg.com/</link>
 <atom:link href="http://www.gettyimg.com/" rel="self" type="application/rss+xml" />

 
                <item>
                <title><![CDATA[【UPSCALED】Ciara - I'm Out (feat. Nicki Minaj) [4K-AI-REMASTERED-H.265-60fps]]]></title>
                <link><![CDATA[https://sharemania.us/threads/ciara-im-out-feat-nicki-minaj-4k-ai-remastered-h-265-60fps.227803/]]></link>
                <description><![CDATA[<article>
<blockquote class="messageText SelectQuoteContainer ugc baseHtml">
<img src="https://i.imgur.com/Hby2kej.png" class="bbCodeImage LbImage" alt="[​IMG]" data-url="https://i.imgur.com/Hby2kej.png" style=""><br>
<img src="https://i.imgur.com/HUnfU9t.png" class="bbCodeImage LbImage" alt="[​IMG]" data-url="https://i.imgur.com/HUnfU9t.png" style=""><br>
<img src="https://i.imgur.com/3Piot7i.png" class="bbCodeImage LbImage" alt="[​IMG]" data-url="https://i.imgur.com/3Piot7i.png" style=""><br>
<br>
<div class="bbCodeBlock bbCodeCode">
<div class="type">Code:</div>
<pre>General
Format                                   : MPEG-4
Format profile                           : Base Media / Version 2
Codec ID                                 : mp42 (mp42/iso2/mp41)
File size                                : 431 MiB
Duration                                 : 4 min 1 s
Overall bit rate                         : 15.0 Mb/s
Frame rate                               : 60.000 FPS

Video
ID                                       : 1
Format                                   : HEVC
Format/Info                              : High Efficiency Video Coding
Format profile                           : Main@L5.1@Main
Codec ID                                 : hvc1
Codec ID/Info                            : High Efficiency Video Coding
Duration                                 : 4 min 1 s
Bit rate                                 : 14.5 Mb/s
Width                                    : 3 840 pixels
Height                                   : 1 536 pixels
Display aspect ratio                     : 2.500
Frame rate mode                          : Constant
Frame rate                               : 60.000 FPS
Color space                              : YUV
Chroma subsampling                       : 4:2:0 (Type 0)
Bit depth                                : 8 bits
Bits/(Pixel*Frame)                       : 0.041
Stream size                              : 418 MiB (97%)
Color range                              : Limited
Color primaries                          : BT.709
Transfer characteristics                 : BT.709
Matrix coefficients                      : BT.709
Codec configuration box                  : hvcC

Audio
ID                                       : 2
Format                                   : AAC LC
Format/Info                              : Advanced Audio Codec Low Complexity
Codec ID                                 : mp4a-40-2
Duration                                 : 4 min 1 s
Source duration                          : 4 min 1 s
Bit rate mode                            : Constant
Bit rate                                 : 421 kb/s
Channel(s)                               : 2 channels
Channel layout                           : L R
Sampling rate                            : 48.0 kHz
Frame rate                               : 46.875 FPS (1024 SPF)
Compression mode                         : Lossy
Stream size                              : 12.1 MiB (3%)
Source stream size                       : 12.1 MiB (3%)
Title                                    : Stereo / Stereo</pre>
</div><div style="text-align: center">
<div class="bbCodeBlock bbCodeVfcHH HiddenContent">
<div class="attribution type">Hidden Content:</div>
<blockquote>You must reply before you can see the hidden data contained here.</blockquote>
</div></div>
<div class="messageTextEndMarker">&nbsp;</div>
</blockquote>
</article>]]></description>
                <author><![CDATA[Librious]]></author>
                </item>

                
                <item>
                <title><![CDATA[【UPSCALED】The Saturdays - Notorious (4K-AI-REMASTERED-H.265-60fps)]]></title>
                <link><![CDATA[https://sharemania.us/threads/the-saturdays-notorious-4k-ai-remastered-h-265-60fps.227808/]]></link>
                <description><![CDATA[<article>
<blockquote class="messageText SelectQuoteContainer ugc baseHtml">
<img src="https://i.imgur.com/vsopIdk.png" class="bbCodeImage LbImage" alt="[​IMG]" data-url="https://i.imgur.com/vsopIdk.png" style=""><br>
<img src="https://i.imgur.com/8LDg9kb.png" class="bbCodeImage LbImage" alt="[​IMG]" data-url="https://i.imgur.com/8LDg9kb.png" style=""><br>
<img src="https://i.imgur.com/dWsQyvx.png" class="bbCodeImage LbImage" alt="[​IMG]" data-url="https://i.imgur.com/dWsQyvx.png" style=""><br>
<br>
<div class="bbCodeBlock bbCodeCode">
<div class="type">Code:</div>
<pre>General
Format                                   : MPEG-4
Format profile                           : Base Media / Version 2
Codec ID                                 : mp42 (mp42/iso2/mp41)
File size                                : 313 MiB
Duration                                 : 3 min 24 s
Overall bit rate                         : 12.8 Mb/s
Frame rate                               : 60.000 FPS

Video
ID                                       : 1
Format                                   : HEVC
Format/Info                              : High Efficiency Video Coding
Format profile                           : Main@L5.1@Main
Codec ID                                 : hvc1
Codec ID/Info                            : High Efficiency Video Coding
Duration                                 : 3 min 24 s
Bit rate                                 : 12.3 Mb/s
Width                                    : 3 840 pixels
Height                                   : 1 552 pixels
Display aspect ratio                     : 2.474
Frame rate mode                          : Constant
Frame rate                               : 60.000 FPS
Color space                              : YUV
Chroma subsampling                       : 4:2:0 (Type 0)
Bit depth                                : 8 bits
Bits/(Pixel*Frame)                       : 0.035
Stream size                              : 302 MiB (97%)
Color range                              : Limited
Color primaries                          : BT.709
Transfer characteristics                 : BT.709
Matrix coefficients                      : BT.709
Codec configuration box                  : hvcC

Audio
ID                                       : 2
Format                                   : AAC LC
Format/Info                              : Advanced Audio Codec Low Complexity
Codec ID                                 : mp4a-40-2
Duration                                 : 3 min 24 s
Source duration                          : 3 min 24 s
Bit rate mode                            : Constant
Bit rate                                 : 435 kb/s
Channel(s)                               : 2 channels
Channel layout                           : L R
Sampling rate                            : 48.0 kHz
Frame rate                               : 46.875 FPS (1024 SPF)
Compression mode                         : Lossy
Stream size                              : 10.6 MiB (3%)
Source stream size                       : 10.6 MiB (3%)
Title                                    : Stereo / Stereo

</pre>
</div><div style="text-align: center">
<div class="bbCodeBlock bbCodeVfcHH HiddenContent">
<div class="attribution type">Hidden Content:</div>
<blockquote>You must reply before you can see the hidden data contained here.</blockquote>
</div></div>
<div class="messageTextEndMarker">&nbsp;</div>
</blockquote>
</article>]]></description>
                <author><![CDATA[Librious]]></author>
                </item>

                
                <item>
                <title><![CDATA[【Requests】[REQ AUD] - Pink Floyd - The Dark Side Of The Moon (50th Anniversary) (2023 Remaster)]]></title>
                <link><![CDATA[https://sharemania.us/threads/pink-floyd-the-dark-side-of-the-moon-50th-anniversary-2023-remaster.227804/]]></link>
                <description><![CDATA[<article>
<blockquote class="messageText SelectQuoteContainer ugc baseHtml">
<a href="https://sharemania.us/threads/pink-floyd-the-dark-side-of-the-moon-50th-anniversary-2023-remaster-qobuz-hi-res-24bit-192khz.217524/" class="internalLink">https://sharemania.us/threads/pink-...23-remaster-qobuz-hi-res-24bit-192khz.217524/</a><br>
<br>
<a href="https://www.qobuz.com/es-es/album/the-dark-side-of-the-moon-50th-anniversary-pink-floyd/xum3c8giy1pac" target="_blank" class="externalLink" rel="nofollow">https://www.qobuz.com/es-es/album/t...oon-50th-anniversary-pink-floyd/xum3c8giy1pac</a><br>
<br>
Re-up pls
<div class="messageTextEndMarker">&nbsp;</div>
</blockquote>
</article>]]></description>
                <author><![CDATA[AKDP90]]></author>
                </item>

                
                <item>
                <title><![CDATA[【MelOn】miss A - Only You (MelOn 1080p)]]></title>
                <link><![CDATA[https://sharemania.us/threads/miss-a-only-you-melon-1080p.227807/]]></link>
                <description><![CDATA[<article>
<blockquote class="messageText SelectQuoteContainer ugc baseHtml">
<img src="https://images2.imgbox.com/d7/14/VRD9Fsir_o.jpg" class="bbCodeImage LbImage" alt="[​IMG]" data-url="https://images2.imgbox.com/d7/14/VRD9Fsir_o.jpg" style=""> <br>
<br>
<span data-s9e-mediaembed="youtube" style="display:inline-block;width:100%;max-width:640px"><span style="display:block;overflow:hidden;position:relative;padding-bottom:56.25%"><iframe allowfullscreen="" loading="lazy" scrolling="no" style="background:url(https://i.ytimg.com/vi/zO9RzrhYR-I/hqdefault.jpg) 50% 50% / cover;border:0;height:100%;left:0;position:absolute;width:100%" src="https://www.youtube.com/embed/zO9RzrhYR-I"></iframe></span></span><br>
<br>
<div class="ToggleTriggerAnchor bbCodeSpoilerContainer">
<button type="button" class="button bbCodeSpoilerButton ToggleTrigger Tooltip JsOnly" data-target="> .SpoilerTarget"><span>Spoiler: <span class="SpoilerTitle">Media Info</span></span></button>
<div class="SpoilerTarget bbCodeSpoilerText">Format : MPEG-4<br>
Format profile : Base Media / Version 2<br>
Codec ID : mp42 (mp42/isom/avc1)<br>
File size : 246 MiB<br>
Duration : 3 min 21 s<br>
Overall bit rate mode : Variable<br>
Overall bit rate : 10.3 Mb/s<br>
Frame rate : 23.976 FPS<br>
Writing application : TMPGEnc Video Mastering Works 5 Version. 5.4.0.100<br>
Comment : CASang<br>
<br>
Video<br>
ID : 2<br>
Format : AVC<br>
Format/Info : Advanced Video Codec<br>
Format profile : Constrained Baseline@L4.1<br>
Format settings : 4 Ref Frames<br>
Format settings, CABAC : No<br>
Format settings, Reference : 4 frames<br>
Codec ID : avc1<br>
Codec ID/Info : Advanced Video Coding<br>
Duration : 3 min 21 s<br>
Bit rate mode : Constant<br>
Bit rate : 10 000 kb/s<br>
Width : 1 920 pixels<br>
Height : 1 080 pixels<br>
Display aspect ratio : 16:9<br>
Frame rate mode : Constant<br>
Frame rate : 23.976 (24000/1001) FPS<br>
Standard : Component<br>
Color space : YUV<br>
Chroma subsampling : 4:2:0<br>
Bit depth : 8 bits<br>
Scan type : Progressive<br>
Bits/(Pixel*Frame) : 0.201<br>
Stream size : 239 MiB (97%)<br>
Writing library : x264 core 125<br>
Encoding settings : cabac=0 / ref=4 / deblock=1:0:0 / analyse=0x1:0x111 / me=dia / subme=2 / psy=1 / psy_rd=1.00:0.00 / mixed_ref=0 / me_range=16 / chroma_me=1 / trellis=0 / 8x8dct=0 / cqm=0 / deadzone=21,11 / fast_pskip=1 / chroma_qp_offset=0 / threads=6 / lookahead_threads=1 / sliced_threads=0 / slices=1 / nr=0 / decimate=1 / interlaced=0 / bluray_compat=0 / constrained_intra=0 / bframes=0 / weightp=0 / keyint=300 / keyint_min=23 / scenecut=40 / intra_refresh=0 / rc_lookahead=10 / rc=cbr / mbtree=1 / bitrate=10000 / ratetol=1.0 / qcomp=0.60 / qpmin=0 / qpmax=69 / qpstep=4 / vbv_maxrate=10000 / vbv_bufsize=10000 / nal_hrd=cbr / ip_ratio=1.40 / aq=1:1.00<br>
Color range : Limited<br>
Color primaries : BT.709<br>
Transfer characteristics : BT.709<br>
Matrix coefficients : BT.709<br>
Codec configuration box : avcC<br>
<br>
Audio<br>
ID : 1<br>
Format : AAC LC<br>
Format/Info : Advanced Audio Codec Low Complexity<br>
Codec ID : mp4a-40-2<br>
Duration : 3 min 21 s<br>
Bit rate mode : Variable<br>
Bit rate : 317 kb/s<br>
Maximum bit rate : 576 kb/s<br>
Channel(s) : 2 channels<br>
Channel layout : L R<br>
Sampling rate : 48.0 kHz<br>
Frame rate : 46.875 FPS (1024 SPF)<br>
Compression mode : Lossy<br>
Stream size : 7.62 MiB (3%)</div>
</div><br>
<div class="bbCodeBlock bbCodeVfcHH HiddenContent">
<div class="attribution type">Hidden Content:</div>
<blockquote>You must reply before you can see the hidden data contained here.</blockquote>
</div>
<div class="messageTextEndMarker">&nbsp;</div>
</blockquote>
</article>]]></description>
                <author><![CDATA[Eric Lyn]]></author>
                </item>

                
                <item>
                <title><![CDATA[【PRORES HD】Stephen Sanchez - Until I Found You |ProRes 1080|]]></title>
                <link><![CDATA[https://sharemania.us/threads/stephen-sanchez-until-i-found-you-prores-1080.227802/]]></link>
                <description><![CDATA[<article>
<blockquote class="messageText SelectQuoteContainer ugc baseHtml">
<div style="text-align: center"><img src="https://i.imgur.com/dhsjWEr.gif" class="bbCodeImage LbImage" alt="[​IMG]" data-url="https://i.imgur.com/dhsjWEr.gif" style=""><br>
<br>
​</div>
<div class="ToggleTriggerAnchor bbCodeSpoilerContainer">
<button type="button" class="button bbCodeSpoilerButton ToggleTrigger Tooltip JsOnly" data-target="> .SpoilerTarget"><span>Spoiler: <span class="SpoilerTitle">ProRes</span></span></button>
<div class="SpoilerTarget bbCodeSpoilerText">
<div class="bbCodeBlock bbCodeCode">
<div class="type">Code:</div>
<pre>Format                                   : MPEG-4
Format profile                           : QuickTime
Codec ID                                 : qt   2005.03 (qt  )
File size                                : 5.20 GiB
Duration                                 : 2 min 56 s
Overall bit rate mode                    : Variable
Overall bit rate                         : 253 Mb/s
Encoded date                             : UTC 2022-06-26 00:51:48
Tagged date                              : UTC 2022-06-26 00:55:56
Writing library                          : Apple QuickTime
TIM                                      : 00:00:00:00
TSC                                      : 24
TSZ                                      : 1

Video
ID                                       : 1
Format                                   : ProRes
Format version                           : Version 1
Format profile                           : 4444
Codec ID                                 : ap4h
Duration                                 : 2 min 56 s
Bit rate mode                            : Variable
Bit rate                                 : 252 Mb/s
Width                                    : 1 920 pixels
Height                                   : 1 080 pixels
Display aspect ratio                     : 16:9
Frame rate mode                          : Constant
Frame rate                               : 24.000 FPS
Color space                              : YUVA
Chroma subsampling                       : 4:4:4
Scan type                                : Progressive
Bits/(Pixel*Frame)                       : 5.058
Stream size                              : 5.17 GiB (99%)
Writing library                          : Apple
Language                                 : English
Encoded date                             : UTC 2022-06-26 00:51:48
Tagged date                              : UTC 2022-06-26 00:51:48
Color primaries                          : BT.709
Transfer characteristics                 : BT.709
Matrix coefficients                      : BT.709

Audio
ID                                       : 2
Format                                   : PCM
Format settings                          : Little / Signed
Codec ID                                 : sowt
Duration                                 : 2 min 56 s
Bit rate mode                            : Constant
Bit rate                                 : 1 536 kb/s
Channel(s)                               : 2 channels
Channel layout                           : L R
Sampling rate                            : 48.0 kHz
Bit depth                                : 16 bits
Stream size                              : 32.3 MiB (1%)
Language                                 : English
Encoded date                             : UTC 2022-06-26 00:51:48
Tagged date                              : UTC 2022-06-26 00:51:48

Other
ID                                       : 3
Type                                     : Time code
Format                                   : QuickTime TC
Duration                                 : 2 min 56 s
Frame rate                               : 24.000 FPS
Time code of first frame                 : 00:00:00:00
Time code, striped                       : Yes
Language                                 : English
Encoded date                             : UTC 2022-06-26 00:51:48
Tagged date                              : UTC 2022-06-26 00:51:48</pre>
</div><div style="text-align: center">​</div></div>
</div><div style="text-align: center"><br>
<br>
<div class="bbCodeBlock bbCodeVfcHH HiddenContent">
<div class="attribution type">Hidden Content:</div>
<blockquote>You must reply before you can see the hidden data contained here.</blockquote>
</div></div>
<div class="messageTextEndMarker">&nbsp;</div>
</blockquote>
</article>]]></description>
                <author><![CDATA[fstambuk]]></author>
                </item>

                
                <item>
                <title><![CDATA[【PRORES HD】Cher Lloyd - M.I.A |ProRes 1080|]]></title>
                <link><![CDATA[https://sharemania.us/threads/cher-lloyd-m-i-a-prores-1080.227806/]]></link>
                <description><![CDATA[<article>
<blockquote class="messageText SelectQuoteContainer ugc baseHtml">
<div style="text-align: center"><img src="https://i.imgur.com/anuWotj.gif" class="bbCodeImage LbImage" alt="[​IMG]" data-url="https://i.imgur.com/anuWotj.gif" style=""><br>
<br>
​</div>
<div class="ToggleTriggerAnchor bbCodeSpoilerContainer">
<button type="button" class="button bbCodeSpoilerButton ToggleTrigger Tooltip JsOnly" data-target="> .SpoilerTarget"><span>Spoiler: <span class="SpoilerTitle">ProRes</span></span></button>
<div class="SpoilerTarget bbCodeSpoilerText">
<div class="bbCodeBlock bbCodeCode">
<div class="type">Code:</div>
<pre>Format                                   : MPEG-4
Format profile                           : QuickTime
Codec ID                                 : qt   2005.03 (qt  )
File size                                : 3.39 GiB
Duration                                 : 2 min 46 s
Overall bit rate mode                    : Variable
Overall bit rate                         : 175 Mb/s
Encoded date                             : UTC 2019-09-16 21:51:37
Tagged date                              : UTC 2019-09-16 22:08:39
Writing library                          : Apple QuickTime
TIM                                      : 00:00:00:00
TSC                                      : 25
TSZ                                      : 1

Video
ID                                       : 1
Format                                   : ProRes
Format version                           : Version 0
Format profile                           : 422 HQ
Codec ID                                 : apch
Duration                                 : 2 min 46 s
Bit rate mode                            : Variable
Bit rate                                 : 174 Mb/s
Width                                    : 1 920 pixels
Height                                   : 1 080 pixels
Display aspect ratio                     : 16:9
Frame rate mode                          : Constant
Frame rate                               : 25.000 FPS
Color space                              : YUV
Chroma subsampling                       : 4:2:2
Scan type                                : Progressive
Bits/(Pixel*Frame)                       : 3.351
Stream size                              : 3.36 GiB (99%)
Writing library                          : Apple
Language                                 : English
Encoded date                             : UTC 2019-09-16 21:51:37
Tagged date                              : UTC 2019-09-16 21:51:37
Color primaries                          : BT.709
Transfer characteristics                 : BT.709
Matrix coefficients                      : BT.709

Audio
ID                                       : 2
Format                                   : PCM
Format settings                          : Little / Signed
Codec ID                                 : sowt
Duration                                 : 2 min 46 s
Bit rate mode                            : Constant
Bit rate                                 : 1 536 kb/s
Channel(s)                               : 2 channels
Channel layout                           : L R
Sampling rate                            : 48.0 kHz
Bit depth                                : 16 bits
Stream size                              : 30.4 MiB (1%)
Language                                 : English
Encoded date                             : UTC 2019-09-16 21:51:37
Tagged date                              : UTC 2019-09-16 21:51:37

Other
ID                                       : 3
Type                                     : Time code
Format                                   : QuickTime TC
Duration                                 : 2 min 46 s
Frame rate                               : 25.000 FPS
Time code of first frame                 : 00:00:00:00
Time code, striped                       : Yes
Language                                 : English
Encoded date                             : UTC 2019-09-16 21:51:37
Tagged date                              : UTC 2019-09-16 21:51:37</pre>
</div><div style="text-align: center">​</div></div>
</div><div style="text-align: center"><br>
<br>
<div class="bbCodeBlock bbCodeVfcHH HiddenContent">
<div class="attribution type">Hidden Content:</div>
<blockquote>You must reply before you can see the hidden data contained here.</blockquote>
</div></div>
<div class="messageTextEndMarker">&nbsp;</div>
</blockquote>
</article>]]></description>
                <author><![CDATA[fstambuk]]></author>
                </item>

                
                <item>
                <title><![CDATA[【UPSCALED】Kerli - Zero Gravity [4K-AI-REMASTERED-H.265-60fps]]]></title>
                <link><![CDATA[https://sharemania.us/threads/kerli-zero-gravity-4k-ai-remastered-h-265-60fps.227805/]]></link>
                <description><![CDATA[<article>
<blockquote class="messageText SelectQuoteContainer ugc baseHtml">
<img src="https://i.imgur.com/2KvNerJ.jpg" class="bbCodeImage LbImage" alt="[​IMG]" data-url="https://i.imgur.com/2KvNerJ.jpg" style=""><br>
<img src="https://i.imgur.com/k0TV0xS.png" class="bbCodeImage LbImage" alt="[​IMG]" data-url="https://i.imgur.com/k0TV0xS.png" style=""><br>
<img src="https://i.imgur.com/LXZGOsB.png" class="bbCodeImage LbImage" alt="[​IMG]" data-url="https://i.imgur.com/LXZGOsB.png" style=""><br>
<br>
<div class="bbCodeBlock bbCodeCode">
<div class="type">Code:</div>
<pre>General
Format                                   : MPEG-4
Format profile                           : Base Media / Version 2
Codec ID                                 : mp42 (mp42/iso2/mp41)
File size                                : 393 MiB
Duration                                 : 3 min 59 s
Overall bit rate                         : 13.7 Mb/s
Frame rate                               : 60.000 FPS

Video
ID                                       : 1
Format                                   : HEVC
Format/Info                              : High Efficiency Video Coding
Format profile                           : Main@L5.1@Main
Codec ID                                 : hvc1
Codec ID/Info                            : High Efficiency Video Coding
Duration                                 : 3 min 59 s
Bit rate                                 : 13.3 Mb/s
Width                                    : 3 840 pixels
Height                                   : 2 160 pixels
Display aspect ratio                     : 16:9
Frame rate mode                          : Constant
Frame rate                               : 60.000 FPS
Color space                              : YUV
Chroma subsampling                       : 4:2:0 (Type 0)
Bit depth                                : 8 bits
Bits/(Pixel*Frame)                       : 0.027
Stream size                              : 381 MiB (97%)
Color range                              : Limited
Color primaries                          : BT.709
Transfer characteristics                 : BT.709
Matrix coefficients                      : BT.709
Codec configuration box                  : hvcC

Audio
ID                                       : 2
Format                                   : AAC LC
Format/Info                              : Advanced Audio Codec Low Complexity
Codec ID                                 : mp4a-40-2
Duration                                 : 3 min 59 s
Source duration                          : 3 min 59 s
Bit rate mode                            : Constant
Bit rate                                 : 409 kb/s
Channel(s)                               : 2 channels
Channel layout                           : L R
Sampling rate                            : 48.0 kHz
Frame rate                               : 46.875 FPS (1024 SPF)
Compression mode                         : Lossy
Stream size                              : 11.7 MiB (3%)
Source stream size                       : 11.7 MiB (3%)
Title                                    : Stereo / Stereo</pre>
</div><div style="text-align: center">
<div class="bbCodeBlock bbCodeVfcHH HiddenContent">
<div class="attribution type">Hidden Content:</div>
<blockquote>You must reply before you can see the hidden data contained here.</blockquote>
</div></div>
<div class="messageTextEndMarker">&nbsp;</div>
</blockquote>
</article>]]></description>
                <author><![CDATA[Librious]]></author>
                </item>

                </channel></rss>